<svg width="154" height="32" viewBox="0 0 154 32" fill="none" xmlns="http://www.w3.org/2000/svg">
<g clip-path="url(#clip0)">
<path d="M7.44 24.168C6.272 24.168 5.216 23.968 4.272 23.568C3.344 23.168 2.608 22.592 2.064 21.84C1.52 21.088 1.24 20.2 1.224 19.176H4.824C4.872 19.864 5.112 20.408 5.544 20.808C5.992 21.208 6.6 21.408 7.368 21.408C8.152 21.408 8.768 21.224 9.216 20.856C9.664 20.472 9.888 19.976 9.888 19.368C9.888 18.872 9.736 18.464 9.432 18.144C9.128 17.824 8.744 17.576 8.28 17.4C7.832 17.208 7.208 17 6.408 16.776C5.32 16.456 4.432 16.144 3.744 15.84C3.072 15.52 2.488 15.048 1.992 14.424C1.512 13.784 1.272 12.936 1.272 11.88C1.272 10.888 1.52 10.024 2.016 9.288C2.512 8.552 3.208 7.992 4.104 7.608C5 7.208 6.024 7.008 7.176 7.008C8.904 7.008 10.304 7.432 11.376 8.28C12.464 9.112 13.064 10.28 13.176 11.784H9.48C9.448 11.208 9.2 10.736 8.736 10.368C8.288 9.984 7.688 9.792 6.936 9.792C6.28 9.792 5.752 9.96 5.352 10.296C4.968 10.632 4.776 11.12 4.776 11.76C4.776 12.208 4.92 12.584 5.208 12.888C5.512 13.176 5.88 13.416 6.312 13.608C6.76 13.784 7.384 13.992 8.184 14.232C9.272 14.552 10.16 14.872 10.848 15.192C11.536 15.512 12.128 15.992 12.624 16.632C13.12 17.272 13.368 18.112 13.368 19.152C13.368 20.048 13.136 20.88 12.672 21.648C12.208 22.416 11.528 23.032 10.632 23.496C9.736 23.944 8.672 24.168 7.44 24.168ZM19.641 7.248V24H16.281V7.248H19.641ZM35.1767 12.432C35.1767 13.328 34.9607 14.168 34.5287 14.952C34.1127 15.736 33.4487 16.368 32.5367 16.848C31.6407 17.328 30.5047 17.568 29.1287 17.568H26.3207V24H22.9607V7.248H29.1287C30.4247 7.248 31.5287 7.472 32.4407 7.92C33.3527 8.368 34.0327 8.984 34.4807 9.768C34.9447 10.552 35.1767 11.44 35.1767 12.432ZM28.9847 14.856C29.9127 14.856 30.6007 14.648 31.0487 14.232C31.4967 13.8 31.7207 13.2 31.7207 12.432C31.7207 10.8 30.8087 9.984 28.9847 9.984H26.3207V14.856H28.9847ZM40.9223 7.248V24H37.5623V7.248H40.9223ZM52.8819 24L49.1859 17.472H47.6019V24H44.2419V7.248H50.5299C51.8259 7.248 52.9299 7.48 53.8419 7.944C54.7539 8.392 55.4339 9.008 55.8819 9.792C56.3459 10.56 56.5779 11.424 56.5779 12.384C56.5779 13.488 56.2579 14.488 55.6179 15.384C54.9779 16.264 54.0259 16.872 52.7619 17.208L56.7699 24H52.8819ZM47.6019 14.952H50.4099C51.3219 14.952 52.0019 14.736 52.4499 14.304C52.8979 13.856 53.1219 13.24 53.1219 12.456C53.1219 11.688 52.8979 11.096 52.4499 10.68C52.0019 10.248 51.3219 10.032 50.4099 10.032H47.6019V14.952ZM69.8889 20.808H63.2169L62.1129 24H58.5849L64.6089 7.224H68.5209L74.5449 24H70.9929L69.8889 20.808ZM68.9769 18.12L66.5529 11.112L64.1289 18.12H68.9769ZM91.1246 24H87.7646L80.1566 12.504V24H76.7966V7.224H80.1566L87.7646 18.744V7.224H91.1246V24ZM106.109 12.288C105.725 11.584 105.197 11.048 104.525 10.68C103.853 10.312 103.069 10.128 102.173 10.128C101.181 10.128 100.301 10.352 99.5331 10.8C98.7651 11.248 98.1651 11.888 97.7331 12.72C97.3011 13.552 97.0851 14.512 97.0851 15.6C97.0851 16.72 97.3011 17.696 97.7331 18.528C98.1811 19.36 98.7971 20 99.5811 20.448C100.365 20.896 101.277 21.12 102.317 21.12C103.597 21.12 104.645 20.784 105.461 20.112C106.277 19.424 106.813 18.472 107.069 17.256H101.309V14.688H110.381V17.616C110.157 18.784 109.677 19.864 108.941 20.856C108.205 21.848 107.253 22.648 106.085 23.256C104.933 23.848 103.637 24.144 102.197 24.144C100.581 24.144 99.1171 23.784 97.8051 23.064C96.5091 22.328 95.4851 21.312 94.7331 20.016C93.9971 18.72 93.6291 17.248 93.6291 15.6C93.6291 13.952 93.9971 12.48 94.7331 11.184C95.4851 9.872 96.5091 8.856 97.8051 8.136C99.1171 7.4 100.573 7.032 102.173 7.032C104.061 7.032 105.701 7.496 107.093 8.424C108.485 9.336 109.445 10.624 109.973 12.288H106.109ZM121.946 7.248V24H118.586V7.248H121.946ZM137.481 12.432C137.481 13.328 137.265 14.168 136.833 14.952C136.417 15.736 135.753 16.368 134.841 16.848C133.945 17.328 132.809 17.568 131.433 17.568H128.625V24H125.265V7.248H131.433C132.729 7.248 133.833 7.472 134.745 7.92C135.657 8.368 136.337 8.984 136.785 9.768C137.249 10.552 137.481 11.44 137.481 12.432ZM131.289 14.856C132.217 14.856 132.905 14.648 133.353 14.232C133.801 13.8 134.025 13.2 134.025 12.432C134.025 10.8 133.113 9.984 131.289 9.984H128.625V14.856H131.289ZM149.371 15.408C150.315 15.584 151.091 16.056 151.699 16.824C152.307 17.592 152.611 18.472 152.611 19.464C152.611 20.36 152.387 21.152 151.939 21.84C151.507 22.512 150.875 23.04 150.043 23.424C149.211 23.808 148.227 24 147.091 24H139.867V7.248H146.779C147.915 7.248 148.891 7.432 149.707 7.8C150.539 8.168 151.163 8.68 151.579 9.336C152.011 9.992 152.227 10.736 152.227 11.568C152.227 12.544 151.963 13.36 151.435 14.016C150.923 14.672 150.235 15.136 149.371 15.408ZM143.227 14.16H146.299C147.099 14.16 147.715 13.984 148.147 13.632C148.579 13.264 148.795 12.744 148.795 12.072C148.795 11.4 148.579 10.88 148.147 10.512C147.715 10.144 147.099 9.96 146.299 9.96H143.227V14.16ZM146.611 21.264C147.427 21.264 148.059 21.072 148.507 20.688C148.971 20.304 149.203 19.76 149.203 19.056C149.203 18.336 148.963 17.776 148.483 17.376C148.003 16.96 147.355 16.752 146.539 16.752H143.227V21.264H146.611Z" fill="white"/>
</g>
<defs>
<clipPath id="clip0">
<rect width="154" height="32" fill="white"/>
</clipPath>
</defs>
</svg>
